<svg xmlns="http://www.w3.org/2000/svg" viewBox="80 45 1760 990" preserveAspectRatio="xMidYMid slice" width="100%" height="100%" style="background:#F2F5FA;">
  <defs>
    <filter id="grain">
      <feTurbulence type="fractalNoise" baseFrequency="1.2" numOctaves="3" stitchTiles="stitch"/>
      <feColorMatrix type="matrix" values="1 0 0 0 0, 0 1 0 0 0, 0 0 1 0 0, 0 0 0 0.03 0" />
    </filter>
    <filter id="glassShadow" x="-20%" y="-20%" width="140%" height="140%">
      <feDropShadow dx="0" dy="30" stdDeviation="40" flood-color="#a4adbd" flood-opacity="0.35"/>
      <feDropShadow dx="0" dy="10" stdDeviation="15" flood-color="#a4adbd" flood-opacity="0.15"/>
    </filter>
    <radialGradient id="centerGlow" cx="50%" cy="50%" r="60%">
      <stop offset="0%" stop-color="#ffffff" stop-opacity="1"/>
      <stop offset="50%" stop-color="#ffffff" stop-opacity="0.8"/>
      <stop offset="100%" stop-color="#F2F5FA" stop-opacity="0"/>
    </radialGradient>
    <linearGradient id="glassPink" x1="0%" y1="0%" x2="100%" y2="100%">
      <stop offset="0%" stop-color="#ffffff" stop-opacity="0.95"/>
      <stop offset="40%" stop-color="#FFEBF0" stop-opacity="0.85"/>
      <stop offset="100%" stop-color="#FFD1DF" stop-opacity="0.4"/>
    </linearGradient>
    <linearGradient id="glassCyan" x1="100%" y1="0%" x2="0%" y2="100%">
      <stop offset="0%" stop-color="#ffffff" stop-opacity="0.95"/>
      <stop offset="40%" stop-color="#E8FAFF" stop-opacity="0.85"/>
      <stop offset="100%" stop-color="#AEE8FF" stop-opacity="0.4"/>
    </linearGradient>
    <linearGradient id="glassLavender" x1="50%" y1="100%" x2="50%" y2="0%">
      <stop offset="0%" stop-color="#ffffff" stop-opacity="0.95"/>
      <stop offset="30%" stop-color="#F3EFFF" stop-opacity="0.85"/>
      <stop offset="70%" stop-color="#D7CFFF" stop-opacity="0.6"/>
      <stop offset="100%" stop-color="#FFF2CE" stop-opacity="0.3"/>
    </linearGradient>
    <linearGradient id="bloomBg" gradientUnits="userSpaceOnUse" x1="0" y1="0" x2="1920" y2="1080">
      <stop offset="0" stop-color="#ffd6e7"/>
      <stop offset="0.35" stop-color="#ffe7c2"/>
      <stop offset="0.7" stop-color="#c8e6ff"/>
      <stop offset="1" stop-color="#d9c8ff"/>
    </linearGradient>
  </defs>
  <rect width="1920" height="1080" fill="url(#bloomBg)" />
  <circle cx="960" cy="540" r="900" fill="url(#centerGlow)" />
  <g filter="url(#glassShadow)">
    <path d="M 960 540 C 1300 -100, 2200 200, 2000 800 C 1800 1200, 1200 1000, 960 540 Z" fill="url(#glassLavender)" />
    <path d="M 960 540 C 500 -50, -200 100, -100 600 C 0 1000, 500 1100, 960 540 Z" fill="url(#glassCyan)" />
    <path d="M 960 540 C 500 900, 100 1200, -150 900 C -300 700, 200 500, 960 540 Z" fill="url(#glassPink)" />
  </g>
  <rect width="100%" height="100%" filter="url(#grain)" opacity="0.8" style="pointer-events:none;" />
</svg>
