<svg xmlns="http://www.w3.org/2000/svg" viewBox="0 0 1920 1080" preserveAspectRatio="xMidYMid slice" width="100%" height="100%" style="background:#050508;"><defs><radialGradient id="coreGlow" cx="50%" cy="50%" r="50%"><stop offset="0%" stop-color="#ffffff"><animate attributeName="stop-opacity" values="0.8;0.9;0.8;0.9;0.8" dur="8s" repeatCount="indefinite" /></stop><stop offset="30%" stop-color="#4facfe"><animate attributeName="stop-opacity" values="0.5;0.6;0.5;0.6;0.5" dur="8s" repeatCount="indefinite" /></stop><stop offset="100%" stop-color="#050508" stop-opacity="0"/></radialGradient><linearGradient id="glass1" x1="0%" y1="0%" x2="100%" y2="100%"><stop offset="0%" stop-color="#00f2fe"/><stop offset="100%" stop-color="#4facfe" stop-opacity="0"/></linearGradient><linearGradient id="glass2" x1="100%" y1="0%" x2="0%" y2="100%"><stop offset="0%" stop-color="#ff0844"/><stop offset="100%" stop-color="#ffb199" stop-opacity="0"/></linearGradient><linearGradient id="glass3" x1="50%" y1="100%" x2="50%" y2="0%"><stop offset="0%" stop-color="#667eea"/><stop offset="100%" stop-color="#764ba2" stop-opacity="0"/></linearGradient><linearGradient id="rimLight" x1="0%" y1="0%" x2="100%" y2="100%"><stop offset="0%" stop-color="#ffffff" stop-opacity="0.8"/><stop offset="50%" stop-color="#ffffff" stop-opacity="0"/><stop offset="100%" stop-color="#ffffff" stop-opacity="0.4"/></linearGradient></defs><circle cx="960" cy="540" r="800" fill="url(#coreGlow)" /><g style="mix-blend-mode: screen;" stroke="url(#rimLight)" stroke-width="1.5"><path id="ribbon1" d="M 960 540 C 1300 200, 1800 100, 2100 400 C 1700 600, 1400 800, 960 540 Z" fill="url(#glass3)"><animateTransform attributeName="transform" type="translate" values="0 0; 10 5; 0 0; -10 -5; 0 0" dur="15s" repeatCount="indefinite" additive="sum"/><animate attributeName="opacity" values="0.9;1;0.9;1;0.9" dur="10s" repeatCount="indefinite"/></path><path id="ribbon2" d="M 960 540 C 600 800, 100 900, -200 600 C 200 400, 500 200, 960 540 Z" fill="url(#glass1)"><animateTransform attributeName="transform" type="translate" values="0 0; -5 10; 0 0; 5 -10; 0 0" dur="18s" repeatCount="indefinite" additive="sum"/><animate attributeName="opacity" values="0.8;0.95;0.8;0.95;0.8" dur="12s" repeatCount="indefinite"/></path><path id="ribbon3" d="M 960 540 C 600 200, 200 100, -100 300 C 300 700, 700 600, 960 540 Z" fill="url(#glass2)"><animateTransform attributeName="transform" type="rotate" values="0 960 540; 2 960 540; -2 960 540; 0 960 540" dur="12s" repeatCount="indefinite" /><animate attributeName="opacity" values="0.9;1;0.9;1;0.9" dur="8s" repeatCount="indefinite"/></path><path id="ribbon4" d="M 960 540 C 1200 900, 1700 1000, 2000 800 C 1600 300, 1100 400, 960 540 Z" fill="url(#glass3)"><animateTransform attributeName="transform" type="translate" values="0 0; -8 -12; 0 0; 8 12; 0 0" dur="20s" repeatCount="indefinite" additive="sum"/><animate attributeName="opacity" values="0.85;0.9;0.85;0.9;0.85" dur="9s" repeatCount="indefinite"/></path></g></svg>