<svg xmlns="http://www.w3.org/2000/svg" viewBox="0 0 1920 1080" preserveAspectRatio="xMidYMid slice" width="100%" height="100%" style="background:#050508;">
  <defs>
    <filter id="noise">
      <feTurbulence type="fractalNoise" baseFrequency="0.8" numOctaves="4" stitchTiles="stitch"/>
      <feColorMatrix type="matrix" values="1 0 0 0 0, 0 1 0 0 0, 0 0 1 0 0, 0 0 0 0.04 0" />
    </filter>
    <radialGradient id="coreGlow" cx="50%" cy="50%" r="50%">
      <stop offset="0%" stop-color="#ffffff" stop-opacity="0.8"/>
      <stop offset="30%" stop-color="#4facfe" stop-opacity="0.5"/>
      <stop offset="100%" stop-color="#050508" stop-opacity="0"/>
    </radialGradient>
    <linearGradient id="glass1" x1="0%" y1="0%" x2="100%" y2="100%">
      <stop offset="0%" stop-color="#00f2fe"/>
      <stop offset="100%" stop-color="#4facfe" stop-opacity="0"/>
    </linearGradient>
    <linearGradient id="glass2" x1="100%" y1="0%" x2="0%" y2="100%">
      <stop offset="0%" stop-color="#ff0844"/>
      <stop offset="100%" stop-color="#ffb199" stop-opacity="0"/>
    </linearGradient>
    <linearGradient id="glass3" x1="50%" y1="100%" x2="50%" y2="0%">
      <stop offset="0%" stop-color="#667eea"/>
      <stop offset="100%" stop-color="#764ba2" stop-opacity="0"/>
    </linearGradient>
  </defs>
  <circle cx="960" cy="540" r="800" fill="url(#coreGlow)" />
  <g style="mix-blend-mode: screen;">
    <path d="M 960 540 C 1300 200, 1800 100, 2100 400 C 1700 600, 1400 800, 960 540 Z" fill="url(#glass3)" />
    <path d="M 960 540 C 600 800, 100 900, -200 600 C 200 400, 500 200, 960 540 Z" fill="url(#glass1)" />
    <path d="M 960 540 C 600 200, 200 100, -100 300 C 300 700, 700 600, 960 540 Z" fill="url(#glass2)" />
    <path d="M 960 540 C 1200 900, 1700 1000, 2000 800 C 1600 300, 1100 400, 960 540 Z" fill="url(#glass3)" />
  </g>
  <rect width="100%" height="100%" filter="url(#noise)" style="pointer-events:none;" />
</svg>
